<svg width="11" height="15" viewBox="0 0 11 15" fill="none" xmlns="http://www.w3.org/2000/svg">
<path d="M5.50017 1C4.30665 1 3.16202 1.46009 2.31807 2.27906C1.47412 3.09802 1 4.20878 1 5.36698C1 8.78462 4.43567 12.8973 5.33598 13.9076C5.3843 13.9614 5.4526 13.9943 5.52593 13.9993C5.59925 14.0043 5.67164 13.9809 5.72722 13.9343L5.7547 13.9076C6.64299 12.8933 10 8.78462 10 5.36664C9.99991 4.20856 9.52579 3.09794 8.68193 2.27906C7.83807 1.46017 6.69357 1.00009 5.50017 1ZM5.50017 6.55197C5.19833 6.55197 4.90326 6.46511 4.65228 6.30238C4.4013 6.13964 4.20569 5.90834 4.09018 5.63773C3.97467 5.36711 3.94445 5.06933 4.00333 4.78205C4.06222 4.49477 4.20757 4.23088 4.42101 4.02376C4.63445 3.81664 4.90639 3.67559 5.20243 3.61844C5.49848 3.5613 5.80534 3.59063 6.08421 3.70272C6.36308 3.81481 6.60143 4.00463 6.76913 4.24818C6.93683 4.49173 7.02634 4.77806 7.02634 5.07098V5.07464C7.02533 5.46679 6.8641 5.84255 6.578 6.11949C6.2919 6.39644 5.90428 6.55197 5.50017 6.55197Z" stroke="#D9D9D9" stroke-linecap="round" stroke-linejoin="round"/>
</svg>
