<svg width="64" height="11" viewBox="0 0 64 11" fill="none" xmlns="http://www.w3.org/2000/svg">
<path d="M2.295 11L3.27 6.93289L0 4.19737L4.32 3.83553L6 0L7.68 3.83553L12 4.19737L8.73 6.93289L9.705 11L6 8.84342L2.295 11Z" fill="#FFF96B"/>
<path d="M15.295 11L16.27 6.93289L13 4.19737L17.32 3.83553L19 0L20.68 3.83553L25 4.19737L21.73 6.93289L22.705 11L19 8.84342L15.295 11Z" fill="#FFF96B"/>
<path d="M28.295 11L29.27 6.93289L26 4.19737L30.32 3.83553L32 0L33.68 3.83553L38 4.19737L34.73 6.93289L35.705 11L32 8.84342L28.295 11Z" fill="#FFF96B"/>
<path d="M41.295 11L42.27 6.93289L39 4.19737L43.32 3.83553L45 0L46.68 3.83553L51 4.19737L47.73 6.93289L48.705 11L45 8.84342L41.295 11Z" fill="#FFF96B"/>
<path d="M54.295 11L55.27 6.93289L52 4.19737L56.32 3.83553L58 0L59.68 3.83553L64 4.19737L60.73 6.93289L61.705 11L58 8.84342L54.295 11Z" fill="#FFF96B"/>
</svg>
